<svg width="512" height="512" viewBox="0 0 512 512" fill="none" xmlns="http://www.w3.org/2000/svg">
<path d="M338.484 134C359.058 134 380.642 145.386 392.697 175.937C418.144 240.396 432 290.254 432 320.493C432 343.77 423.786 358.506 406.35 367.127C400.928 369.809 394.425 368.929 389.898 364.918L344.295 324.667C336.108 317.417 328.998 309.934 309.051 309.934H202.964C183.018 309.934 175.875 317.421 167.705 324.667L122.102 364.918C119.387 367.331 115.879 368.674 112.247 368.667C109.966 368.67 107.711 368.141 105.667 367.127C88.2262 358.502 80 343.769 80 320.508C80.0002 290.265 93.8595 240.407 119.318 175.937C131.373 145.386 152.937 134 173.516 134C183.136 134 192.564 136.501 200.705 140.695C236.256 159.014 276.524 158.632 311.344 140.695C319.456 136.501 328.86 134 338.484 134ZM335.619 242.952C332.285 242.952 329.087 244.277 326.73 246.634C324.372 248.992 323.048 252.19 323.048 255.524C323.048 258.858 324.372 262.056 326.73 264.413C329.087 266.771 332.285 268.095 335.619 268.095C338.953 268.095 342.151 266.771 344.509 264.413C346.866 262.056 348.19 258.858 348.19 255.524C348.19 252.19 346.866 248.992 344.509 246.634C342.151 244.277 338.953 242.952 335.619 242.952ZM173.86 192.667C154.418 192.664 138.664 208.419 138.667 227.86C138.664 247.301 154.418 263.072 173.86 263.069C193.301 263.073 209.072 247.301 209.069 227.86C209.072 208.419 193.301 192.663 173.86 192.667ZM173.86 204.403C186.819 204.399 197.328 214.901 197.333 227.86C197.337 240.825 186.825 251.337 173.86 251.333C160.901 251.328 150.399 240.818 150.403 227.86C150.408 214.907 160.907 204.408 173.86 204.403ZM310.476 217.81C307.142 217.81 303.944 219.134 301.587 221.491C299.229 223.849 297.905 227.047 297.905 230.381C297.905 233.715 299.229 236.913 301.587 239.27C303.944 241.628 307.142 242.952 310.476 242.952C313.81 242.952 317.008 241.628 319.366 239.27C321.723 236.913 323.048 233.715 323.048 230.381C323.048 227.047 321.723 223.849 319.366 221.491C317.008 219.134 313.81 217.81 310.476 217.81ZM360.762 217.81C357.428 217.81 354.23 219.134 351.872 221.491C349.515 223.849 348.19 227.047 348.19 230.381C348.19 233.715 349.515 236.913 351.872 239.27C354.23 241.628 357.428 242.952 360.762 242.952C364.096 242.952 367.294 241.628 369.651 239.27C372.009 236.913 373.333 233.715 373.333 230.381C373.333 227.047 372.009 223.849 369.651 221.491C367.294 219.134 364.096 217.81 360.762 217.81ZM335.619 192.667C332.285 192.667 329.087 193.991 326.73 196.349C324.372 198.706 323.048 201.904 323.048 205.238C323.048 208.572 324.372 211.77 326.73 214.128C329.087 216.485 332.285 217.81 335.619 217.81C338.953 217.81 342.151 216.485 344.509 214.128C346.866 211.77 348.19 208.572 348.19 205.238C348.19 201.904 346.866 198.706 344.509 196.349C342.151 193.991 338.953 192.667 335.619 192.667Z" fill="url(#paint0_linear_7010_17)"/>
<defs>
<linearGradient id="paint0_linear_7010_17" x1="256" y1="134" x2="256" y2="368.667" gradientUnits="userSpaceOnUse">
<stop stop-color="#935AD1"/>
<stop offset="1" stop-color="#7648A7"/>
</linearGradient>
</defs>
</svg>
