<svg width="512" height="512" viewBox="0 0 512 512" fill="none" xmlns="http://www.w3.org/2000/svg">
<path d="M123.345 408H284.695C292.433 408 299.428 403.387 302.476 396.277L378.799 218.196C379.83 215.789 380.364 213.194 380.364 210.574V123.345C380.364 112.661 371.702 104 361.018 104H275.68C271.858 104 268.122 105.133 264.94 107.256L112.614 208.918C107.236 212.509 104.008 218.544 104.008 225.009L104 388.655C104 399.339 112.661 408 123.345 408Z" fill="url(#paint0_linear_7002_72)"/>
<path d="M339.036 380.364H388.657C399.341 380.364 408.002 371.702 408.002 361.018V298.828C408.002 297.914 407.936 296.999 407.809 296.092L382.739 120.609C381.377 111.078 373.216 104 363.587 104H289.141C278.454 104 269.793 112.664 269.795 123.351L269.818 211.409C269.818 213.487 270.152 215.551 270.81 217.522L320.682 367.137C323.316 375.035 330.709 380.364 339.036 380.364Z" fill="url(#paint1_linear_7002_72)"/>
<path d="M332.247 380.355L388.656 380.347C399.34 380.347 407.999 371.686 407.999 361.002V306.345C407.999 300.699 405.531 295.332 401.245 291.656L219.978 136.285C216.471 133.281 212.005 131.628 207.387 131.628H150.978C140.294 131.628 131.633 140.289 131.633 150.973V205.638C131.633 211.284 134.101 216.651 138.387 220.327L319.651 375.696C323.158 378.702 327.627 380.355 332.247 380.355Z" fill="#FF43F2"/>
<path d="M351 161H161V351H351V161Z" fill="black"/>
<path fill-rule="evenodd" clip-rule="evenodd" d="M212.067 186.479H184.722V258.31H212.067C218.873 258.31 224.961 256.77 230.332 253.692C235.735 250.614 239.96 246.357 243.005 240.917C246.048 235.445 247.57 229.269 247.57 222.395C247.57 215.521 246.048 209.364 243.005 203.924C239.96 198.452 235.735 194.175 230.332 191.097C224.961 188.019 218.873 186.479 212.067 186.479ZM223.15 243.327C219.934 245.243 216.19 246.2 211.914 246.2L198.729 246.203V198.59H211.914C216.188 198.59 219.934 199.543 223.15 201.462C226.365 203.378 228.844 206.129 230.59 209.721C232.335 213.28 233.206 217.502 233.206 222.395C233.206 227.287 232.335 231.525 230.59 235.118C228.844 238.677 226.365 241.409 223.15 243.327Z" fill="white"/>
<path d="M271.804 254.717C277.381 257.93 283.606 259.541 290.48 259.541C297.082 259.541 303.033 258.071 308.335 255.127C313.67 252.183 317.861 248.168 320.904 243.069C323.982 237.941 325.521 232.212 325.521 225.883V220.24H295.098V231.27H311.799C311.456 233.932 310.489 236.361 308.898 238.556C307.018 241.153 304.47 243.193 301.254 244.661C298.072 246.131 294.515 246.868 290.582 246.868C286.341 246.868 282.512 245.809 279.09 243.688C275.668 241.566 272.983 238.661 271.034 234.967C269.121 231.242 268.162 227.048 268.162 222.398C268.162 217.747 269.118 213.572 271.034 209.878C272.986 206.151 275.671 203.227 279.09 201.105C282.51 198.983 286.341 197.925 290.582 197.925C293.457 197.925 296.142 198.386 298.638 199.31C301.136 200.2 303.307 201.484 305.155 203.158C307.037 204.799 308.524 206.75 309.618 209.006H324.6C323.301 204.32 321.024 200.184 317.776 196.591C314.56 192.999 310.591 190.209 305.872 188.227C301.186 186.246 296.057 185.251 290.48 185.251C283.603 185.251 277.381 186.873 271.804 190.124C266.227 193.337 261.848 197.787 258.669 203.463C255.489 209.106 253.897 215.416 253.897 222.395C253.897 229.373 255.489 235.703 258.669 241.379C261.851 247.022 266.23 251.466 271.804 254.717Z" fill="white"/>
<path d="M184.722 312.999H260.722V327.249H184.722V312.999Z" fill="white"/>
<defs>
<linearGradient id="paint0_linear_7002_72" x1="387.944" y1="122.914" x2="109.096" y2="401.762" gradientUnits="userSpaceOnUse">
<stop offset="0.28" stop-color="#7256FF"/>
<stop offset="0.66" stop-color="#00D980"/>
</linearGradient>
<linearGradient id="paint1_linear_7002_72" x1="411.41" y1="371.799" x2="291.518" y2="113.208" gradientUnits="userSpaceOnUse">
<stop offset="0.3" stop-color="#FF43F2"/>
<stop offset="0.54" stop-color="#7256FF"/>
</linearGradient>
</defs>
</svg>
